# 3ds Max Wavefront OBJ Exporter v0.97b - (c)2007 guruware
# File Created: 15.04.2021 12:14:28

mtllib Pyramid_02.mtl

#
# object Puzzle_002
#

v  3.4921 2.4415 -0.0292
v  4.7511 0.0310 -1.2345
v  2.2332 0.0310 -1.2345
v  3.4530 2.4250 -0.0000
v  2.2013 0.0284 -1.1983
v  2.2013 0.0284 1.1983
v  2.2123 0.0000 1.2153
v  2.2123 0.0000 -1.2153
v  4.7720 0.0000 -1.2153
v  4.7720 0.0000 1.2153
v  3.5019 2.4666 0.0073
v  3.5019 2.4666 -0.0073
v  3.4824 2.4666 -0.0073
v  3.4824 2.4666 0.0073
v  2.1999 0.0118 1.2282
v  2.2099 0.0304 1.2254
v  4.7511 0.0310 1.2345
v  4.7788 0.0127 1.2345
v  4.7750 0.0291 1.2261
v  4.7830 0.0284 -1.1983
v  4.7844 0.0118 -1.2282
v  4.7744 0.0304 -1.2254
v  2.2055 0.0127 -1.2345
v  2.2093 0.0291 -1.2261
v  3.4921 2.4415 0.0292
v  2.2332 0.0310 1.2345
v  2.2191 0.0063 1.2382
v  4.7668 0.0078 1.2374
v  4.7830 0.0284 1.1983
v  4.7880 0.0065 1.2099
v  4.7877 0.0071 -1.2110
v  3.5313 2.4250 -0.0000
v  4.7652 0.0063 -1.2382
v  2.2175 0.0078 -1.2374
v  2.1963 0.0065 -1.2099
v  2.1966 0.0071 1.2110
v  3.2284 1.2494 0.6253
v  3.7416 1.1682 0.6802
v  4.1825 1.1197 0.6902
v  4.2041 1.1222 0.6795
v  4.2156 1.1148 0.6551
v  4.1582 1.2248 0.2669
v  4.0480 1.4357 0.4946
v  4.0377 1.4408 0.5202
v  4.0173 1.4361 0.5319
v  4.1893 1.1653 0.0643
v  4.0836 1.2420 0.2746
v  4.1035 1.3295 0.2488
v  4.0139 1.2224 0.4956
v  3.7533 1.2937 0.6032
v  3.7416 1.1979 0.5761
v  3.9676 1.2108 0.5227
v  3.9903 1.2235 0.5102
# 53 vertices

vn 0.0000 0.5674 -0.8235
vn 0.1234 0.3710 -0.9204
vn -0.1084 0.3680 -0.9235
vn -0.7585 0.6517 -0.0000
vn -0.8658 0.4803 -0.1405
vn -0.8652 0.4872 0.1190
vn -0.1965 -0.9637 0.1809
vn -0.1844 -0.9610 -0.2062
vn 0.1965 -0.9637 -0.1809
vn 0.1844 -0.9610 0.2062
vn 0.3409 0.8649 0.3685
vn 0.3409 0.8649 -0.3685
vn -0.3409 0.8649 -0.3685
vn -0.3409 0.8649 0.3685
vn -0.7456 -0.1647 0.6457
vn -0.5298 0.5533 0.6428
vn 0.1084 0.3680 0.9235
vn 0.6252 -0.1523 0.7654
vn 0.5866 0.5634 0.5818
vn 0.8652 0.4872 -0.1190
vn 0.7456 -0.1647 -0.6457
vn 0.5298 0.5533 -0.6428
vn -0.6252 -0.1523 -0.7654
vn -0.5866 0.5634 -0.5818
vn -0.0000 0.5674 0.8235
vn -0.1240 0.3707 0.9204
vn -0.2061 -0.4613 0.8630
vn 0.1399 -0.4986 0.8555
vn 0.8658 0.4803 0.1405
vn 0.8817 -0.4048 0.2423
vn 0.8826 -0.4417 -0.1612
vn 0.7585 0.6517 -0.0000
vn 0.2061 -0.4613 -0.8630
vn -0.1399 -0.4986 -0.8555
vn -0.8817 -0.4048 -0.2423
vn -0.8826 -0.4417 0.1612
vn -0.0024 0.4548 0.8906
vn 0.0504 0.7535 0.6556
vn 0.0908 0.7230 0.6848
vn 0.4033 0.8205 0.4052
vn 0.6492 0.7544 0.0966
vn 0.4723 0.8813 -0.0123
vn 0.9177 0.2548 0.3050
vn 0.6758 0.2546 0.6918
vn 0.2572 0.2171 0.9417
vn 0.8123 0.5830 0.0176
vn 0.7725 0.5144 0.3724
vn 0.9327 0.2785 0.2291
vn 0.5362 0.6062 0.5874
vn 0.1202 0.0437 0.9918
vn 0.1086 0.5092 0.8538
vn 0.1416 0.5201 0.8423
vn 0.2846 0.3687 0.8849
# 53 vertex normals

vt 0.6781 0.5475 0.0000
vt 0.9881 0.9903 0.0000
vt 0.3682 0.9903 0.0000
vt 0.4539 0.0128 0.0000
vt 0.7131 0.5312 0.0000
vt 0.1947 0.5312 0.0000
vt 0.2631 0.3637 0.0000
vt 0.0086 0.3637 0.0000
vt 0.0086 0.0045 0.0000
vt 0.2631 0.0045 0.0000
vt 0.4008 1.7132 0.0000
vt 0.4008 1.7151 0.0000
vt 0.3973 1.7151 0.0000
vt 0.3973 1.7132 0.0000
vt 0.1883 0.5348 0.0000
vt 0.1889 0.5307 0.0000
vt 0.6431 0.5499 0.0000
vt 0.6499 0.5465 0.0000
vt 0.6490 0.5495 0.0000
vt 0.9903 0.0070 0.0000
vt 0.9967 0.0034 0.0000
vt 0.9961 0.0074 0.0000
vt 0.3614 0.9936 0.0000
vt 0.3623 0.9906 0.0000
vt 0.3331 0.9927 0.0000
vt 0.3307 0.9973 0.0000
vt 0.0174 0.5497 0.0000
vt 0.0231 0.5499 0.0000
vt 0.0197 0.5453 0.0000
vt 0.6469 0.5456 0.0000
vt 0.4719 0.0070 0.0000
vt 0.4694 0.0022 0.0000
vt 0.9930 0.0023 0.0000
vt 0.7326 0.5343 0.0000
vt 0.7311 0.5253 0.0000
vt 0.9916 0.9948 0.0000
vt 0.3643 0.9946 0.0000
vt 0.6757 0.5428 0.0000
vt 0.7156 0.5359 0.0000
vt 0.1920 0.5358 0.0000
vt 0.3355 0.9973 0.0000
vt 0.7295 0.5343 0.0000
vt 0.6806 0.5428 0.0000
vt 0.4555 0.0038 0.0000
vt 0.4523 0.0038 0.0000
vt 0.2627 0.3659 0.0000
vt 0.2655 0.3628 0.0000
vt 0.2645 0.3655 0.0000
vt 0.0150 0.5463 0.0000
vt 0.2654 0.0053 0.0000
vt 0.2626 0.0023 0.0000
vt 0.2651 0.0036 0.0000
vt 0.4641 0.0035 0.0000
vt 0.4659 0.0071 0.0000
vt 0.0091 0.0023 0.0000
vt 0.0062 0.0055 0.0000
vt 0.0073 0.0028 0.0000
vt 0.9963 0.9938 0.0000
vt 0.9938 0.9904 0.0000
vt 0.0063 0.3630 0.0000
vt 0.0092 0.3660 0.0000
vt 0.0066 0.3647 0.0000
vt 0.7209 0.5346 0.0000
vt 0.7191 0.5310 0.0000
vt 0.2682 0.7737 0.0000
vt 0.3945 0.7588 0.0000
vt 0.5031 0.7498 0.0000
vt 0.5084 0.7503 0.0000
vt 0.5841 0.2435 0.0000
vt 0.5894 0.2419 0.0000
vt 0.6733 0.2657 0.0000
vt 0.6241 0.3113 0.0000
vt 0.6185 0.3125 0.0000
vt 0.4674 0.8088 0.0000
vt 0.4624 0.8080 0.0000
vt 0.8810 0.4099 0.0000
vt 0.8272 0.4209 0.0000
vt 0.8830 0.3833 0.0000
vt 0.7927 0.4310 0.0000
vt 0.8792 0.4786 0.0000
vt 0.8555 0.5035 0.0000
vt 0.9841 0.4303 0.0000
vt 0.9417 0.3585 0.0000
vt 0.9547 0.5452 0.0000
vt 0.8862 0.5847 0.0000
vt 0.9477 0.7045 0.0000
vt 0.9846 0.9572 0.0000
vt 0.9133 0.7172 0.0000
vt 0.9762 0.0788 0.0000
vt 0.9908 0.2615 0.0000
vt 0.9631 0.2615 0.0000
vt 0.9624 0.5647 0.0000
vt 0.8896 0.6085 0.0000
vt 0.9934 0.4185 0.0000
vt 0.9489 0.3420 0.0000
vt 0.9906 0.4262 0.0000
vt 0.9456 0.3501 0.0000
vt 0.9609 0.5539 0.0000
vt 0.8905 0.5961 0.0000
vt 0.7172 0.2529 0.0000
vt 0.3974 0.7818 0.0000
vt 0.6773 0.2884 0.0000
# 102 texture coords

o Puzzle_002
g Puzzle_002
usemtl wire_135059008
s 1
f 1/1/1 2/2/2 3/3/3 
s 2
f 4/4/4 5/5/5 6/6/6 
s 4
f 7/7/7 8/8/8 9/9/9 10/10/10 
f 11/11/11 12/12/12 13/13/13 14/14/14 
s 2
f 6/6/6 15/15/15 16/16/16 
s 1
f 17/17/17 18/18/18 19/19/19 
s 2
f 20/20/20 21/21/21 22/22/22 
s 1
f 3/3/3 23/23/23 24/24/24 
f 25/25/25 14/26/14 16/27/16 26/28/26 
f 26/28/26 27/29/27 28/30/28 17/17/17 
s 2
f 29/31/29 30/32/30 31/33/31 20/20/20 
f 20/20/20 22/22/22 12/34/12 32/35/32 
s 1
f 2/2/2 33/36/33 34/37/34 3/3/3 
f 3/3/3 24/24/24 13/38/13 1/1/1 
s 2
f 5/5/5 35/39/35 36/40/36 6/6/6 
s 1
f 14/26/14 25/25/25 11/41/11 
s 2
f 11/42/11 32/35/32 12/34/12 
s 1
f 12/43/12 1/1/1 13/38/13 
s 2
f 13/44/13 4/4/4 14/45/14 
f 6/6/6 36/40/36 15/15/15 
s 4
f 36/46/36 7/7/7 27/47/27 15/48/15 
s 1
f 15/49/15 27/29/27 26/28/26 16/27/16 
f 17/17/17 28/30/28 18/18/18 
s 4
f 28/50/28 10/10/10 30/51/30 18/52/18 
s 2
f 18/53/18 30/32/30 29/31/29 19/54/19 
f 20/20/20 31/33/31 21/21/21 
s 4
f 31/55/31 9/9/9 33/56/33 21/57/21 
s 1
f 21/58/21 33/36/33 2/2/2 22/59/22 
f 3/3/3 34/37/34 23/23/23 
s 4
f 34/60/34 8/8/8 35/61/35 23/62/23 
s 2
f 23/63/23 35/39/35 5/5/5 24/64/24 
f 14/45/14 4/4/4 6/6/6 16/16/16 
s 4
f 27/47/27 7/7/7 10/10/10 28/50/28 
f 30/51/30 10/10/10 9/9/9 31/55/31 
s 1
f 22/59/22 2/2/2 1/1/1 12/43/12 
s 4
f 33/56/33 9/9/9 8/8/8 34/60/34 
s 2
f 24/64/24 5/5/5 4/4/4 13/44/13 
s 4
f 35/61/35 8/8/8 7/7/7 36/46/36 
s 1
f 37/65/37 26/28/26 38/66/38 
f 39/67/39 17/17/17 19/19/19 40/68/40 
s 2
f 40/69/40 19/54/19 29/31/29 41/70/41 
f 41/70/41 29/31/29 20/20/20 42/71/42 
f 43/72/43 32/35/32 11/42/11 44/73/44 
s 1
f 44/74/44 11/41/11 25/25/25 45/75/45 
s off
f 42/76/42 46/77/46 47/78/47 
f 46/79/46 48/80/48 47/81/47 
f 41/82/41 42/76/42 47/78/47 49/83/49 
f 48/80/48 43/84/43 49/85/49 47/81/47 
f 50/86/50 37/87/37 51/88/51 
f 37/89/37 38/90/38 51/91/51 
s 1
f 37/65/37 25/25/25 26/28/26 
s off
f 45/92/45 50/86/50 51/88/51 52/93/52 
f 38/90/38 39/94/39 52/95/52 51/91/51 
f 39/94/39 40/96/40 53/97/53 52/95/52 
f 44/98/44 45/92/45 52/93/52 53/99/53 
f 40/96/40 41/82/41 49/83/49 53/97/53 
f 43/84/43 44/98/44 53/99/53 49/85/49 
s 2
f 20/20/20 32/35/32 46/100/46 
s 1
f 26/28/26 17/17/17 39/67/39 38/66/38 
f 50/101/50 45/75/45 25/25/25 
f 37/65/37 50/101/50 25/25/25 
s 2
f 20/20/20 46/100/46 42/71/42 
f 32/35/32 43/72/43 48/102/48 
f 32/35/32 48/102/48 46/100/46 
# 38 polygons - 26 triangles

