# 3ds Max Wavefront OBJ Exporter v0.97b - (c)2007 guruware
# File Created: 26.04.2021 15:28:54

mtllib Sunray_01.mtl

#
# object Plane001
#

v  -0.6629 4.6658 0.8093
v  -0.9177 0.0235 0.8093
v  0.8516 0.0235 0.8093
v  0.5968 4.6658 0.8093
# 4 vertices

vn 0.0000 0.0000 1.0000
# 1 vertex normals

vt 0.0175 0.7937 0.0000
vt 0.7011 0.0124 0.0000
vt 0.9838 0.2884 0.0000
vt 0.2187 0.9902 0.0000
# 4 texture coords

o Plane001
g Plane001
usemtl wire_198225087
s 1
f 1/1/1 2/2/1 3/3/1 4/4/1 
# 1 polygons

